PathFileType	4	(X/Y/Z)	s11c0301.trc
DataRate	CameraRate	NumFrames	NumMarkers	Units	OrigDataRate	OrigDataStartFrame	OrigNumFrames
200	200	4	48	mm	200	750	2000
Frame#	Time	racr			lacr			c7			jug			rlel			rdr			llel			ldr			s2			lic			ric			lasi			rasi			rpsi			lpsi			rgt			lgt			rth1			rth2			rth3			rth4			rlfc			rmfc			rsh1			rsh2			rsh3			rsh4			rlmal			rcal			rtoe			rmt5			lth1			lth2			lth4			lth3			llfc			lmfc			llmal			lcal			lmt5			lsh1			lsh2			lsh3			lsh4			ltoe			SBIKE			LBIKE			RBIKE			
		X1	Y1	Z1	X2	Y2	Z2	X3	Y3	Z3	X4	Y4	Z4	X5	Y5	Z5	X6	Y6	Z6	X7	Y7	Z7	X8	Y8	Z8	X9	Y9	Z9	X10	Y10	Z10	X11	Y11	Z11	X12	Y12	Z12	X13	Y13	Z13	X14	Y14	Z14	X15	Y15	Z15	X16	Y16	Z16	X17	Y17	Z17	X18	Y18	Z18	X19	Y19	Z19	X20	Y20	Z20	X21	Y21	Z21	X22	Y22	Z22	X23	Y23	Z23	X24	Y24	Z24	X25	Y25	Z25	X26	Y26	Z26	X27	Y27	Z27	X28	Y28	Z28	X29	Y29	Z29	X30	Y30	Z30	X31	Y31	Z31	X32	Y32	Z32	X33	Y33	Z33	X34	Y34	Z34	X35	Y35	Z35	X36	Y36	Z36	X37	Y37	Z37	X38	Y38	Z38	X39	Y39	Z39	X40	Y40	Z40	X41	Y41	Z41	X42	Y42	Z42	X43	Y43	Z43	X44	Y44	Z44	X45	Y45	Z45	X46	Y46	Z46	X47	Y47	Z47	X48	Y48	Z48	
750	3.7500	817.368788	1352.083501	-120.230017	774.655784	1375.595517	-453.430466	772.505681	1452.857666	-278.721410	753.746887	1262.028572	-292.359361	677.805239	1144.027190	36.320322	795.938618	928.847861	-72.901491	620.794083	1142.933048	-612.051634	791.672371	925.879305	-478.454870	159.451665	1303.297530	-219.591545	355.204360	1326.548884	-447.209669	395.086713	1221.584400	-65.558357	371.492764	1241.318612	-419.842996	404.065198	1167.479395	-110.077808	231.261750	1353.226741	-161.302227	211.060754	1366.756278	-250.428998	271.306774	1105.399368	-49.981398	265.234508	1209.152244	-469.907739	280.465429	990.613731	-49.779763	305.271207	905.769571	-62.999150	284.614946	822.541071	-79.828560	341.191365	908.236844	-71.303081	291.952113	717.018160	-101.309612	289.102205	697.982989	-231.043047	243.174761	568.185963	-80.112981	244.673529	480.782474	-93.349890	203.943150	403.857837	-91.557379	271.846877	476.677692	-120.891687	166.502307	269.904397	-96.492108	105.440057	282.443200	-143.936953	348.448084	128.204825	-150.537179	275.660992	131.528233	-78.632431	391.324032	1119.837012	-493.307987	469.982652	1085.312324	-491.253606	493.796655	1113.621647	-483.103691	524.291168	1014.478586	-500.418420	617.148311	916.672866	-480.605776	634.112122	901.147241	-348.544903	283.020617	650.305295	-431.273682	221.675557	667.259923	-394.152554	302.472147	473.923821	-452.599842	523.121679	839.826438	-490.783782	476.920457	769.363499	-471.517909	399.227134	728.777531	-461.146735	501.248786	748.236834	-450.713347	377.788886	413.159975	-384.472242	-214.896227	956.812250	-255.618017	-17.685051	81.067824	-460.942315	-17.725191	80.929512	-62.039004	
751	3.7550	818.403433	1353.350579	-122.628641	772.967348	1377.352003	-456.153983	772.087570	1453.319763	-280.634254	752.681432	1262.438360	-293.258060	679.424456	1145.720301	34.855424	796.284898	928.887723	-72.982864	617.602894	1141.953471	-611.941676	791.346997	926.321664	-478.744154	159.952976	1304.744742	-216.911442	353.120035	1327.919867	-447.140223	397.494161	1221.929732	-66.657505	370.192259	1242.376846	-420.240433	405.477546	1167.965337	-110.815120	232.711268	1354.274797	-159.616491	211.476847	1367.270685	-248.864819	271.742572	1106.338908	-49.225966	263.799863	1210.228499	-469.086796	279.933875	991.721193	-49.120080	304.769654	906.676823	-62.227221	284.459693	823.265276	-79.373337	340.773615	908.976154	-69.974764	291.456808	717.908248	-99.759231	289.834325	698.200458	-229.013593	240.778724	569.108909	-79.105937	240.615338	481.643329	-92.480740	198.385093	405.421961	-90.848893	267.652698	477.037306	-120.219399	157.926094	272.170862	-95.922272	97.087363	286.333243	-143.288669	337.906204	127.864019	-150.474957	265.260435	132.179675	-78.624483	390.943647	1120.791434	-492.455661	469.954389	1087.206503	-490.218367	493.607334	1116.207544	-483.114876	525.039145	1017.130341	-499.630702	620.720223	920.936284	-478.961734	637.693972	905.157202	-346.794907	289.882804	649.308100	-430.509303	227.700528	664.997005	-393.863904	313.076009	473.627731	-452.469073	527.706295	842.418374	-489.182186	482.305562	771.231998	-470.362102	405.079664	729.727943	-460.289094	506.773454	750.495455	-449.594693	389.623403	414.480970	-384.544172	-214.924490	956.813191	-255.577959	-17.706639	81.084132	-460.930845	-17.678178	80.984368	-62.163545	
752	3.7600	819.206614	1354.548414	-124.968474	771.350416	1378.857243	-458.751304	771.835260	1453.358225	-282.661073	751.889170	1262.402288	-293.973259	680.823146	1147.362185	33.601692	796.533729	928.999954	-72.919780	614.219410	1140.866156	-611.817929	791.043097	926.670748	-479.020582	160.253392	1306.550165	-214.581904	351.329115	1329.080095	-446.887579	399.442106	1222.450688	-67.999066	368.913067	1243.240250	-420.572862	406.647488	1168.634972	-111.758451	234.042268	1355.629132	-158.029154	212.201540	1368.259527	-248.179636	271.952555	1107.574803	-48.744954	262.673243	1211.464322	-468.459340	280.016069	992.599324	-48.765814	305.233128	907.818779	-61.648265	285.352666	824.193172	-78.530818	341.310384	910.216497	-68.913651	292.411488	718.482927	-98.269845	291.715905	698.367578	-227.215423	239.736711	570.173525	-78.196540	237.410253	482.784013	-91.691018	193.526874	407.505407	-90.063893	264.280567	477.677184	-119.508102	149.680566	275.092284	-95.322184	89.239802	290.271597	-142.848112	327.348158	128.435481	-150.294667	254.608030	133.730152	-78.258279	390.465992	1121.640695	-491.752072	469.710773	1088.826019	-489.351062	493.295619	1118.336588	-483.210212	525.437011	1019.390584	-498.768670	623.550276	924.681202	-477.402453	642.325769	908.359991	-344.041998	296.454826	647.561673	-429.751641	233.411241	661.842799	-393.473265	323.554695	472.508199	-452.035097	531.834815	844.460635	-487.728373	487.379598	772.591693	-469.143870	410.727200	729.921080	-459.368203	512.130481	752.118801	-448.232321	401.303628	415.357735	-384.636811	-215.009823	956.725013	-255.423280	-17.722446	81.067232	-460.924809	-17.701966	80.931789	-62.127604	
753	3.7650	819.757455	1355.545979	-127.295508	769.879002	1379.916838	-461.106534	771.700974	1453.046583	-284.789102	751.273084	1262.014776	-294.688650	682.002882	1148.928721	32.705366	796.710415	929.172305	-72.723610	610.724584	1139.649815	-611.627244	790.644673	927.056391	-479.363608	160.370231	1308.966940	-213.376712	349.946488	1330.101384	-446.708109	401.159757	1223.222584	-69.383864	367.747513	1244.000267	-421.003452	407.452215	1169.740340	-112.883629	235.259839	1357.288976	-156.716986	213.290575	1369.486604	-248.139273	272.107048	1109.100714	-48.270676	261.864600	1212.750431	-467.866861	280.648936	993.647571	-48.525048	306.648664	909.025972	-61.038570	287.628328	825.191927	-77.506212	342.738098	911.645139	-68.050789	294.845874	718.952144	-97.078054	294.854371	698.085550	-225.298247	239.830109	571.519626	-77.256248	235.218407	484.306105	-90.984957	189.230098	410.235361	-89.314235	260.983838	478.134989	-119.962629	141.723804	278.829318	-94.755403	81.594542	295.110304	-142.534064	316.918692	129.452943	-150.172659	244.324829	136.148634	-78.164363	389.869933	1122.328875	-491.034373	469.313063	1090.136517	-488.432794	491.777382	1117.274323	-476.758855	525.051451	1019.960920	-495.202568	625.402355	927.871557	-476.191784	644.446931	911.023443	-343.359960	302.615534	645.116669	-428.852484	238.768038	657.949809	-393.069740	333.676112	471.301074	-452.368447	535.447653	845.898605	-486.153131	492.044939	773.275611	-467.857673	415.997459	729.545002	-458.414433	516.992160	753.284444	-446.753693	412.780373	415.549334	-384.642610	-215.054103	956.725064	-255.459340	-17.736930	81.084881	-460.934625	-17.709179	80.982835	-62.153156	
